# File created by Blade
# Date/Time:  Thu Sep 25 19:32:06 2014
# Frame Rate: 120.000 fps
#------------------------------------------------------
:FULLY-SPECIFIED
:DEGREES
2679
root -0.556369 32.955251 -1.437320 6.094090 -5.492443 -2.652877
Spine -5.301987 8.492300 3.317805
Head -11.300029 -5.627072 2.291785
LeftShoulder -12.612569 17.213085 23.225475
LeftArm 19.830401 -23.652738 -40.003066
LeftForeArm 5.531348 -0.000000 14.192074
LeftHand -29.450414 -0.000000 1.589573
LeftHandThumb1 -26.253704 0.000000 33.147579
RightShoulder -17.642734 17.731911 -39.580023
RightArm -7.354681 14.135092 35.321847
RightForeArm -13.954471 -0.000000 19.287821
RightHand -7.432850 0.000000 -9.552602
RightHandThumb1 -24.326973 -0.000000 -32.862282
LeftUpLeg -2.999103 6.930475 8.879488
LeftLeg 5.485183 -0.000000 -0.000000
LeftFoot -12.542333 8.026027 -18.562779
LeftToeBase 9.739890 -0.000000 -0.000000
RightUpLeg -5.466961 -4.605380 2.723519
RightLeg 9.327514 -0.000000 -0.000000
RightFoot -10.607046 -8.467341 -0.808188
RightToeBase -0.245535 -0.000000 0.000000
2680
root -0.633304 32.949384 -1.438492 6.051160 -5.540465 -2.721053
Spine -5.219417 8.497536 3.408534
Head -11.319465 -5.600981 2.290986
LeftShoulder -12.627269 17.206030 23.192446
LeftArm 19.842494 -23.612186 -40.049129
LeftForeArm 5.577144 -0.000000 14.237029
LeftHand -29.360655 -0.000000 1.240464
LeftHandThumb1 -26.253704 0.000000 33.147579
RightShoulder -17.594634 17.781019 -39.522519
RightArm -7.177461 14.217017 35.350284
RightForeArm -13.933510 -0.000000 19.350097
RightHand -7.415918 -0.000000 -9.613776
RightHandThumb1 -24.326973 -0.000000 -32.862282
LeftUpLeg -3.132962 6.878958 9.077086
LeftLeg 5.916722 -0.000000 -0.000000
LeftFoot -12.733545 8.107100 -18.687810
LeftToeBase 9.748105 -0.000000 -0.000000
RightUpLeg -5.458882 -4.445768 2.920498
RightLeg 9.435997 -0.000000 -0.000000
RightFoot -10.660009 -8.593750 -0.914149
RightToeBase -0.286888 -0.000000 0.000000
2681
root -0.709371 32.942576 -1.440451 6.036658 -5.612564 -2.799042
Spine -5.198226 8.561812 3.523761
Head -11.250979 -5.669516 2.239018
LeftShoulder -12.579656 17.261722 23.160986
LeftArm 19.926846 -23.635872 -40.170660
LeftForeArm 5.528180 -0.000000 14.246215
LeftHand -29.489057 -0.000000 1.426564
LeftHandThumb1 -26.253704 0.000000 33.147579
RightShoulder -17.577011 17.864686 -39.583699
RightArm -7.057083 14.187865 35.451920
RightForeArm -13.902963 -0.000000 19.430875
RightHand -7.432285 -0.000000 -9.688216
RightHandThumb1 -24.326973 -0.000000 -32.862282
LeftUpLeg -3.316236 6.902536 9.278002
LeftLeg 6.410365 -0.000000 -0.000000
LeftFoot -12.934048 8.139797 -18.752827
LeftToeBase 9.709779 -0.000000 -0.000000
RightUpLeg -5.488231 -4.264566 3.126883
RightLeg 9.561012 -0.000000 -0.000000
RightFoot -10.725051 -8.729332 -1.006707
RightToeBase -0.304712 -0.000000 0.000000
2682
root -0.786636 32.935734 -1.442870 6.016571 -5.644041 -2.863342
Spine -5.158723 8.560732 3.619865
Head -11.214998 -5.653569 2.220281
LeftShoulder -12.546590 17.229732 23.142083
LeftArm 19.895231 -23.564083 -40.222043
LeftForeArm 5.445880 -0.000000 14.298448
LeftHand -29.390481 0.000000 1.328905
LeftHandThumb1 -26.253704 0.000000 33.147579
RightShoulder -17.536360 17.897660 -39.582764
RightArm -6.894252 14.250065 35.545147
RightForeArm -13.830121 -0.000000 19.539256
RightHand -7.547119 0.000000 -9.845654
RightHandThumb1 -24.326973 -0.000000 -32.862282
LeftUpLeg -3.486521 6.683414 9.470173
LeftLeg 6.865534 -0.000000 -0.000000
LeftFoot -13.163660 8.369693 -18.893349
LeftToeBase 9.690772 -0.000000 -0.000000
RightUpLeg -5.526242 -4.157702 3.320055
RightLeg 9.720931 -0.000000 -0.000000
RightFoot -10.795667 -8.809389 -1.143076
RightToeBase -0.358522 -0.000000 0.000000
2683
root -0.862906 32.927844 -1.443953 5.969402 -5.728650 -2.916738
Spine -5.087582 8.584185 3.703124
Head -11.177015 -5.627631 2.214872
LeftShoulder -12.546835 17.266537 23.089809
LeftArm 19.931983 -23.579604 -40.287352
LeftForeArm 5.615950 0.000000 14.346037
LeftHand -29.461651 -0.000000 1.300929
LeftHandThumb1 -26.253704 0.000000 33.147579
RightShoulder -17.458369 18.055212 -39.594156
RightArm -6.833866 14.123152 35.593554
RightForeArm -13.686454 0.000000 19.643120
RightHand -7.523936 -0.000000 -9.986509
RightHandThumb1 -24.326973 -0.000000 -32.862282
LeftUpLeg -3.646542 6.545617 9.650694
LeftLeg 7.384888 -0.000000 -0.000000
LeftFoot -13.409865 8.522020 -19.114773
LeftToeBase 9.627313 -0.000000 -0.000000
RightUpLeg -5.533723 -3.954643 3.493100
RightLeg 9.869511 -0.000000 -0.000000
RightFoot -10.867688 -8.936986 -1.265421
RightToeBase -0.354937 -0.000000 0.000000
2684
root -0.941088 32.919622 -1.447291 5.925573 -5.823364 -2.991777
Spine -5.007846 8.669463 3.788424
Head -11.154700 -5.701159 2.273511
LeftShoulder -12.505177 17.208538 23.084786
LeftArm 19.959067 -23.600566 -40.364977
LeftForeArm 5.811877 -0.000000 14.324074
LeftHand -29.430615 0.000000 1.057290
LeftHandThumb1 -26.253704 0.000000 33.147579
RightShoulder -17.448386 18.078353 -39.582738
RightArm -6.645565 14.102822 35.679805
RightForeArm -13.551560 0.000000 19.715997
RightHand -7.543725 -0.000000 -9.998843
RightHandThumb1 -24.326973 -0.000000 -32.862282
LeftUpLeg -3.836845 6.438147 9.851070
LeftLeg 7.964979 -0.000000 -0.000000
LeftFoot -13.685188 8.681473 -19.280508
LeftToeBase 9.612110 -0.000000 -0.000000
RightUpLeg -5.544498 -3.716165 3.688695
RightLeg 10.015347 -0.000000 -0.000000
RightFoot -10.938332 -9.056847 -1.323535
RightToeBase -0.394625 -0.000000 0.000000
2685
root -1.020463 32.911405 -1.449499 5.866956 -5.891999 -3.060848
Spine -4.920584 8.647229 3.893404
Head -11.095024 -5.639673 2.225238
LeftShoulder -12.526326 17.227986 23.070170
LeftArm 19.983458 -23.534743 -40.473697
LeftForeArm 5.621225 -0.000000 14.336760
LeftHand -29.317535 -0.000000 1.356852
LeftHandThumb1 -26.253704 0.000000 33.147579
RightShoulder -17.352901 18.197754 -39.600045
RightArm -6.540919 14.078207 35.779608
RightForeArm -13.473991 0.000000 19.821464
RightHand -7.621080 -0.000000 -10.050628
RightHandThumb1 -24.326973 -0.000000 -32.862282
LeftUpLeg -4.040706 6.239801 10.052327
LeftLeg 8.596141 -0.000000 -0.000000
LeftFoot -13.978142 8.887707 -19.476915
LeftToeBase 9.555299 -0.000000 -0.000000
RightUpLeg -5.545081 -3.581301 3.881818
RightLeg 10.177138 -0.000000 -0.000000
RightFoot -11.006578 -9.109071 -1.419030
RightToeBase -0.408012 -0.000000 0.000000
2686
root -1.097189 32.902868 -1.454628 5.819345 -5.991728 -3.134362
Spine -4.831741 8.695386 4.015820
Head -11.068328 -5.681915 2.162765
LeftShoulder -12.506040 17.247476 23.010893
LeftArm 19.989535 -23.578711 -40.547413
LeftForeArm 5.784774 -0.000000 14.429221
LeftHand -29.417423 -0.000000 1.086025
LeftHandThumb1 -26.253704 0.000000 33.147579
RightShoulder -17.295791 18.247567 -39.618975
RightArm -6.378852 14.086886 35.873443
RightForeArm -13.411570 -0.000000 19.895943
RightHand -7.580597 0.000000 -10.026811
RightHandThumb1 -24.326973 -0.000000 -32.862282
LeftUpLeg -4.270378 6.076731 10.247236
LeftLeg 9.256999 -0.000000 -0.000000
LeftFoot -14.261812 9.080765 -19.696060
LeftToeBase 9.498090 -0.000000 -0.000000
RightUpLeg -5.568824 -3.388243 4.073254
RightLeg 10.357062 -0.000000 -0.000000
RightFoot -11.087198 -9.194840 -1.537168
RightToeBase -0.421815 -0.000000 0.000000
2687
root -1.174983 32.894132 -1.455599 5.739565 -6.088286 -3.201115
Spine -4.719908 8.742034 4.109034
Head -11.024737 -5.689053 2.187839
LeftShoulder -12.510606 17.339666 22.973039
LeftArm 20.089926 -23.462714 -40.588371
LeftForeArm 5.528059 -0.000000 14.421377
LeftHand -29.418891 -0.000000 1.322671
LeftHandThumb1 -26.253704 0.000000 33.147579
RightShoulder -17.226501 18.270751 -39.575085
RightArm -6.219680 13.982824 35.921855
RightForeArm -13.218850 -0.000000 19.995482
RightHand -7.505678 -0.000000 -9.915085
RightHandThumb1 -24.326973 -0.000000 -32.862282
LeftUpLeg -4.491932 5.862378 10.443384
LeftLeg 9.984164 -0.000000 -0.000000
LeftFoot -14.573796 9.267810 -19.996301
LeftToeBase 9.418760 -0.000000 -0.000000
RightUpLeg -5.542573 -3.204864 4.259963
RightLeg 10.513710 -0.000000 -0.000000
RightFoot -11.157123 -9.283508 -1.622324
RightToeBase -0.471147 -0.000000 0.000000
2688
root -1.251079 32.883465 -1.457595 5.665054 -6.195982 -3.296199
Spine -4.601294 8.799901 4.278038
Head -10.984501 -5.723940 2.095086
LeftShoulder -12.524577 17.329701 22.902908
LeftArm 20.164890 -23.416261 -40.655192
LeftForeArm 5.592529 -0.000000 14.344807
LeftHand -29.204188 -0.000000 1.247988
LeftHandThumb1 -26.253704 0.000000 33.147579
RightShoulder -17.211165 18.356377 -39.672765
RightArm -6.026472 13.926725 36.069343
RightForeArm -13.202383 -0.000000 20.021958
RightHand -7.535496 -0.000000 -9.901642
RightHandThumb1 -24.326973 -0.000000 -32.862282
LeftUpLeg -4.730385 5.655326 10.666033
LeftLeg 10.743198 -0.000000 -0.000000
LeftFoot -14.864252 9.430510 -20.342958
LeftToeBase 9.128962 -0.000000 -0.000000
RightUpLeg -5.530450 -3.025792 4.474025
RightLeg 10.692638 -0.000000 -0.000000
RightFoot -11.245696 -9.370921 -1.731111
RightToeBase -0.512048 -0.000000 0.000000
2689
root -1.329763 32.873336 -1.464998 5.603016 -6.312625 -3.387217
Spine -4.483483 8.858514 4.402053
Head -10.962666 -5.750065 2.071904
LeftShoulder -12.514348 17.264034 22.896028
LeftArm 20.131548 -23.399360 -40.727717
LeftForeArm 5.673541 -0.000000 14.421992
LeftHand -29.363950 -0.000000 0.948726
LeftHandThumb1 -26.253704 0.000000 33.147579
RightShoulder -17.154087 18.420109 -39.649896
RightArm -5.834554 13.842792 36.128865
RightForeArm -13.144614 0.000000 20.042711
RightHand -7.346677 -0.000000 -9.836325
RightHandThumb1 -24.326973 -0.000000 -32.862282
LeftUpLeg -5.000292 5.353581 10.883405
LeftLeg 11.535320 -0.000000 -0.000000
LeftFoot -15.227763 9.724536 -20.704857
LeftToeBase 9.068629 -0.000000 -0.000000
RightUpLeg -5.539320 -2.822692 4.687708
RightLeg 10.868837 -0.000000 -0.000000
RightFoot -11.310610 -9.449408 -1.813810
RightToeBase -0.582177 -0.000000 0.000000
